# xmcd
#
# Track frame offsets: 
#        150
#        17712
#        40280
#        49677
#        68135
#        98672
#        115787
#        137890
#        156065
#        170962
#
# Disc length: 2627 seconds
#
# Revision: 0
# Processed by: cddbd v1.5.2PL0 Copyright (c) Steve Scherf et al.
# Submitted via: ExactAudioCopy v0.95b4
#
DISCID=840a410a
DTITLE=Allman Brothers - One More Ride-Idle Wild South Outtakes
DYEAR=1900
DGENRE=
TTITLE0=01 One More Ride
TTITLE1=02 Home Jam
TTITLE2=03 Little martha
TTITLE3=04 Statesboro Blues
TTITLE4=05 Im Memory Of Elizabeth Reed
TTITLE5=06 Midnight Rider
TTITLE6=07 hootchie Koochie Man
TTITLE7=08 One More Ride
TTITLE8=09 Allman Jam
TTITLE9=10 Instrumental Jam
EXTD=
EXTT0=
EXTT1=
EXTT2=
EXTT3=
EXTT4=
EXTT5=
EXTT6=
EXTT7=
EXTT8=
EXTT9=
PLAYORDER=
